<svg width="717" height="1246" viewBox="0 0 717 1246" fill="none" xmlns="http://www.w3.org/2000/svg">
<rect width="717" height="1246" fill="#101010"/>
<path d="M329 316L229 669L270.5 683L297.5 583.5L290 580.5L299.5 540L351.5 553L354 543L385 550.5L401.5 483L323 462L331.5 427L392 442.5L422.5 339L329 316Z" fill="#171717"/>
<path id="Workshop block" d="M466 540L532 553L537 580.5L603 597.5L587.5 673.5L475.5 648L481.5 622L444.5 610.5L466 540Z" fill="#171717"/>
<path id="chemical block" fill-rule="evenodd" clip-rule="evenodd" d="M224 729L352 767L317.5 884.5L255.5 871.5L252 884.5H263.5L233.5 968L149 944L168.5 854.5L182.5 859L224 729ZM217.5 833.5L239 760L296 774.5L270.5 843.5L217.5 833.5Z" fill="#171717"/>
<path id="Architecture block" d="M360.5 616L404.5 624.5L374 760L320.5 746.5L330.5 703.5L280.5 691.5L287.5 660L312 666L317 642L351.5 648.5L360.5 616Z" fill="#171717"/>
<path id="Auditorium" d="M311.5 550.5L380 566.5L371 605L351.5 601L343 634L292 624.5L311.5 550.5Z" fill="#171717"/>
<path id="playground" d="M445 652L580.5 686.5L523 893L382.5 857.5L445 652Z" fill="#171717"/>
<path d="M458.603 841.746C459.909 841.135 461.464 841.54 462.307 842.709L486.235 875.905C487.878 878.185 485.766 881.27 483.046 880.563L422.05 864.699C419.33 863.992 418.988 860.268 421.534 859.078L458.603 841.746Z" fill="#101010"/>
<path d="M428.5 269.5L467.5 278.5L470 232.5L434.5 225L428.5 269.5Z" fill="#171717"/>
<path d="M428.5 278.5L420 302L467.5 310V286L428.5 278.5Z" fill="#171717"/>
<path d="M383.5 218L366.5 289L408.5 299L422.5 225L383.5 218Z" fill="#171717"/>
<path d="M333.5 204.5L315 281.5L356.5 289L375 214.5L333.5 204.5Z" fill="#171717"/>
<path d="M475.227 507.057L483.367 222.607L408 205L340.5 188H309.959L87 964.819L125.823 981.599L197.774 1001L317.348 992.61L569.954 952.759L630 672.229V517.544L475.227 507.057Z" stroke="#323232" stroke-width="5"/>
<path id="main route from entrance" d="M124 953.5L138.25 898.25M206.373 675.5L201 695.5L176.75 769.25M206.373 675.5L271.5 695.5L289.5 629.5L346.5 641L354.5 606.5L385.5 611.5L387 606.5L401.66 553.5M206.373 675.5L257.687 484.5M401.66 553.5L419.5 489L433.5 360V318L309 293.5L302.418 318M401.66 553.5L452.5 569M246.5 675.5L234.5 733M176.75 769.25L152.5 843L138.25 898.25M176.75 769.25L206.373 779M138.25 898.25L156.5 905M257.687 484.5L279.5 491.5M257.687 484.5L302.418 318M302.418 318L327 326.5" stroke="#323232"/>
<path id="sub route connecting arch block and main route/workshop block" d="M429.5 564L396.5 726L356.5 870.5L296.5 939.5L261 946.5L245 934" stroke="#323232"/>
<path d="M328.5 459L335 433.5L390.5 447L385.5 474.5L328.5 459Z" fill="#171717"/>
</svg>
